<?xml version="1.0" encoding="UTF-8" standalone="no"?>
<!-- Created with Inkscape (http://www.inkscape.org/) -->

<svg
   xmlns:dc="http://purl.org/dc/elements/1.1/"
   xmlns:cc="http://creativecommons.org/ns#"
   xmlns:rdf="http://www.w3.org/1999/02/22-rdf-syntax-ns#"
   xmlns:svg="http://www.w3.org/2000/svg"
   xmlns="http://www.w3.org/2000/svg"
   xmlns:sodipodi="http://sodipodi.sourceforge.net/DTD/sodipodi-0.dtd"
   xmlns:inkscape="http://www.inkscape.org/namespaces/inkscape"
   width="145mm"
   height="145mm"
   viewBox="0 0 513.77934 513.77922"
   id="svg2"
   version="1.1"
   inkscape:version="0.91 r13725"
   sodipodi:docname="bitcoin-calculator.svg">
  <defs
     id="defs4" />
  <sodipodi:namedview
     id="base"
     pagecolor="#ffffff"
     bordercolor="#666666"
     borderopacity="1.0"
     inkscape:pageopacity="0.0"
     inkscape:pageshadow="2"
     inkscape:zoom="0.35"
     inkscape:cx="-130.71429"
     inkscape:cy="520"
     inkscape:document-units="px"
     inkscape:current-layer="layer1"
     showgrid="false"
     inkscape:window-width="1853"
     inkscape:window-height="1053"
     inkscape:window-x="0"
     inkscape:window-y="27"
     inkscape:window-maximized="1" />
  <metadata
     id="metadata7">
    <rdf:RDF>
      <cc:Work
         rdf:about="">
        <dc:format>image/svg+xml</dc:format>
        <dc:type
           rdf:resource="http://purl.org/dc/dcmitype/StillImage" />
        <dc:title></dc:title>
      </cc:Work>
    </rdf:RDF>
  </metadata>
  <g
     inkscape:label="Layer 1"
     inkscape:groupmode="layer"
     id="layer1"
     transform="translate(0,-538.58304)">
    <g
       id="g3572"
       transform="translate(1.1428856,539.21875)">
      <path
         id="path3474"
         d="M 509.653,113.512 424.142,28.001 c -1.505,-1.503 -3.543,-2.347 -5.669,-2.347 l -324.945,0 c -4.428,0 -8.017,3.588 -8.017,8.017 l 0,470.313 c 0,4.428 3.588,8.017 8.017,8.017 l 410.455,0 c 4.428,0 8.017,-3.588 8.017,-8.017 l 0,-384.802 c 0,-2.126 -0.844,-4.165 -2.347,-5.67 z"
         style="fill:#f2f2f2"
         inkscape:connector-curvature="0" />
      <g
         id="g3476">
        <path
           id="path3478"
           d="m 511.982,118.826 c -0.089,-1.996 -0.912,-3.893 -2.33,-5.312 L 424.14,28.002 c -1.504,-1.504 -3.542,-2.348 -5.668,-2.348 l -0.356,0 0,85.156 c 0,4.427 3.589,8.017 8.017,8.017 l 85.849,0 z"
           style="fill:#e5e5e5"
           inkscape:connector-curvature="0" />
        <path
           id="path3480"
           d="m 93.528,25.653 c -4.428,0 -8.017,3.588 -8.017,8.017 l 0,470.313 c 0,4.428 3.588,8.017 8.017,8.017 l 375.888,0 -333.272,-486.347 -42.616,0 z"
           style="fill:#e5e5e5"
           inkscape:connector-curvature="0" />
      </g>
      <path
         id="path3482"
         d="M 214.313,0 24.05,0 C 10.789,0 0,10.789 0,24.05 l 0,258.672 c 0,13.261 10.789,24.05 24.05,24.05 l 190.263,0 c 13.261,0 24.05,-10.789 24.05,-24.05 l 0,-258.672 C 238.363,10.789 227.574,0 214.313,0 Z"
         style="fill:#666666"
         inkscape:connector-curvature="0" />
      <path
         id="path3484"
         d="m 358.614,247.983 c -65.717,0 -119.182,53.465 -119.182,119.182 0,65.717 53.465,119.182 119.182,119.182 65.717,0 119.182,-53.465 119.182,-119.182 0,-65.717 -53.466,-119.182 -119.182,-119.182 z"
         style="fill:#f7d04a"
         inkscape:connector-curvature="0" />
      <path
         id="path3486"
         d="m 382.129,462.831 c -65.717,0 -119.182,-53.465 -119.182,-119.182 0,-26.875 8.946,-51.698 24.009,-71.656 -28.845,21.772 -47.525,56.331 -47.525,95.172 0,65.717 53.465,119.182 119.182,119.182 38.841,0 73.4,-18.68 95.172,-47.525 -19.957,15.063 -44.78,24.009 -71.656,24.009 z"
         style="fill:#f3b41b"
         inkscape:connector-curvature="0" />
      <path
         id="path3488"
         d="m 376.915,360.217 -12.423,-0.366 0,-44.528 28.326,0 c 4.428,0 8.017,-3.588 8.017,-8.017 0,-4.428 -3.588,-8.017 -8.017,-8.017 l -28.326,0 0,-9.086 c 0,-4.428 -3.588,-8.017 -8.017,-8.017 -4.428,0 -8.017,3.588 -8.017,8.017 l 0,9.086 -8.017,0 c -13.261,0 -24.05,10.789 -24.05,24.05 l 0,27.791 c 0,13.217 10.719,23.98 23.92,24.05 l 8.147,0.239 0,43.585 -24.05,0 c -4.428,0 -8.017,3.588 -8.017,8.017 0,4.429 3.588,8.017 8.017,8.017 l 24.05,0 0,9.086 c 0,4.428 3.588,8.017 8.017,8.017 4.428,0 8.017,-3.588 8.017,-8.017 l 0,-9.086 12.292,0 c 13.261,0 24.05,-10.789 24.05,-24.05 l 0,-26.722 c 10e-4,-13.216 -10.718,-23.978 -23.919,-24.049 z m -36.236,-1.066 c -0.078,-0.002 -0.157,-0.003 -0.236,-0.003 -4.421,0 -8.017,-3.596 -8.017,-8.017 l 0,-27.791 c 0,-4.421 3.596,-8.017 8.017,-8.017 l 8.017,0 0,44.057 -7.781,-0.229 z m 44.123,51.839 c 0,4.421 -3.596,8.017 -8.017,8.017 l -12.292,0 0,-43.114 12.056,0.355 c 0.078,0.002 0.157,0.003 0.236,0.003 4.421,0 8.017,3.596 8.017,8.017 l 0,26.722 z"
         style="fill:#eb6836"
         inkscape:connector-curvature="0" />
      <path
         id="path3490"
         d="m 204.693,25.653 -171.023,0 c -4.428,0 -8.017,3.588 -8.017,8.017 l 0,42.756 c 0,4.428 3.588,8.017 8.017,8.017 l 171.023,0 c 4.428,0 8.017,-3.588 8.017,-8.017 l 0,-42.756 c 0,-4.428 -3.588,-8.017 -8.017,-8.017 z"
         style="fill:#f2f2f2"
         inkscape:connector-curvature="0" />
      <g
         id="g3492">
        <path
           id="path3494"
           d="m 33.67,25.653 c -4.428,0 -8.017,3.588 -8.017,8.017 l 0,42.756 c 0,4.428 3.588,8.017 8.017,8.017 l 34.739,0 58.789,-58.789 -93.528,0 z"
           style="fill:#62c9cc"
           inkscape:connector-curvature="0" />
        <path
           id="path3496"
           d="m 204.693,25.653 -29.929,0 -58.789,58.789 88.718,0 c 4.428,0 8.017,-3.588 8.017,-8.017 l 0,-42.755 c 0,-4.428 -3.588,-8.017 -8.017,-8.017 z"
           style="fill:#62c9cc"
           inkscape:connector-curvature="0" />
      </g>
      <g
         id="g3498">
        <path
           id="path3500"
           d="m 67.875,94.063 -34.205,0 c -4.428,0 -8.017,3.588 -8.017,8.017 l 0,34.205 c 0,4.428 3.588,8.017 8.017,8.017 l 34.205,0 c 4.428,0 8.017,-3.588 8.017,-8.017 l 0,-34.205 c -10e-4,-4.429 -3.589,-8.017 -8.017,-8.017 z"
           style="fill:#ef9d3c"
           inkscape:connector-curvature="0" />
        <path
           id="path3502"
           d="m 135.749,94.063 -34.205,0 c -4.428,0 -8.017,3.588 -8.017,8.017 l 0,34.205 c 0,4.428 3.588,8.017 8.017,8.017 l 34.205,0 c 4.428,0 8.017,-3.588 8.017,-8.017 l 0,-34.205 c 0,-4.429 -3.588,-8.017 -8.017,-8.017 z"
           style="fill:#ef9d3c"
           inkscape:connector-curvature="0" />
        <path
           id="path3504"
           d="m 67.875,162.472 -34.205,0 c -4.428,0 -8.017,3.588 -8.017,8.017 l 0,34.205 c 0,4.428 3.588,8.017 8.017,8.017 l 34.205,0 c 4.428,0 8.017,-3.588 8.017,-8.017 l 0,-34.205 c -10e-4,-4.429 -3.589,-8.017 -8.017,-8.017 z"
           style="fill:#ef9d3c"
           inkscape:connector-curvature="0" />
        <path
           id="path3506"
           d="m 135.749,162.472 -34.205,0 c -4.428,0 -8.017,3.588 -8.017,8.017 l 0,34.205 c 0,4.428 3.588,8.017 8.017,8.017 l 34.205,0 c 4.428,0 8.017,-3.588 8.017,-8.017 l 0,-34.205 c 0,-4.429 -3.588,-8.017 -8.017,-8.017 z"
           style="fill:#ef9d3c"
           inkscape:connector-curvature="0" />
        <path
           id="path3508"
           d="m 67.875,230.881 -34.205,0 c -4.428,0 -8.017,3.588 -8.017,8.017 l 0,34.205 c 0,4.428 3.588,8.017 8.017,8.017 l 34.205,0 c 4.428,0 8.017,-3.588 8.017,-8.017 l 0,-34.205 c -10e-4,-4.429 -3.589,-8.017 -8.017,-8.017 z"
           style="fill:#ef9d3c"
           inkscape:connector-curvature="0" />
        <path
           id="path3510"
           d="m 135.749,230.881 -34.205,0 c -4.428,0 -8.017,3.588 -8.017,8.017 l 0,34.205 c 0,4.428 3.588,8.017 8.017,8.017 l 34.205,0 c 4.428,0 8.017,-3.588 8.017,-8.017 l 0,-34.205 c 0,-4.429 -3.588,-8.017 -8.017,-8.017 z"
           style="fill:#ef9d3c"
           inkscape:connector-curvature="0" />
        <path
           id="path3512"
           d="m 204.159,94.063 -34.205,0 c -4.428,0 -8.017,3.588 -8.017,8.017 l 0,34.205 c 0,4.428 3.588,8.017 8.017,8.017 l 34.205,0 c 4.428,0 8.017,-3.588 8.017,-8.017 l 0,-34.205 c -10e-4,-4.429 -3.589,-8.017 -8.017,-8.017 z"
           style="fill:#ef9d3c"
           inkscape:connector-curvature="0" />
      </g>
      <path
         id="path3514"
         d="m 204.693,162.472 -34.205,0 c -4.428,0 -8.017,3.588 -8.017,8.017 l 0,102.614 c 0,4.428 3.588,8.017 8.017,8.017 l 34.205,0 c 4.428,0 8.017,-3.588 8.017,-8.017 l 0,-102.614 c 0,-4.429 -3.588,-8.017 -8.017,-8.017 z"
         style="fill:#f7d04a"
         inkscape:connector-curvature="0" />
      <path
         id="path3516"
         d="m 297.846,92.994 c -2.183,0 -4.358,-0.886 -5.941,-2.632 L 276.395,73.26 c -2.974,-3.279 -2.727,-8.35 0.554,-11.324 3.276,-2.976 8.349,-2.729 11.324,0.554 l 15.51,17.102 c 2.974,3.279 2.727,8.35 -0.554,11.324 -1.534,1.392 -3.462,2.078 -5.383,2.078 z"
         style="fill:#666666"
         inkscape:connector-curvature="0" />
      <g
         id="g3518">
        <path
           id="path3520"
           d="M 464.11,214.126 336.377,86.391 c -1.12,-1.119 -2.545,-1.882 -4.097,-2.192 l -30.233,-6.046 c -2.627,-0.522 -5.344,0.297 -7.241,2.192 -1.894,1.895 -2.717,4.612 -2.192,7.241 l 6.046,30.233 c 0.31,1.552 1.073,2.977 2.192,4.097 l 127.735,127.735 c 5.116,5.116 12.417,7.67 19.607,6.89 6.428,-0.697 11.449,-3.932 15.917,-8.402 9.377,-9.378 9.377,-24.634 -10e-4,-34.013 z"
           style="fill:#62c9cc"
           inkscape:connector-curvature="0" />
        <rect
           id="rect3522"
           height="50.237999"
           width="123.937"
           style="fill:#62c9cc"
           transform="matrix(-0.7071,-0.7071,0.7071,-0.7071,514.0678,508.8909)"
           y="122.86"
           x="300.45999" />
      </g>
      <path
         id="path3524"
         d="m 302.047,78.153 c -5.513,-1.096 -10.535,3.916 -9.433,9.433 l 6.046,30.233 c 0.31,1.552 1.073,2.977 2.192,4.097 l 35.525,-35.525 c -1.12,-1.119 -2.545,-1.882 -4.097,-2.192 l -30.233,-6.046 z"
         style="fill:#f7d04a"
         inkscape:connector-curvature="0" />
      <path
         id="path3526"
         d="m 464.11,214.126 -40.095,-40.095 -35.525,35.525 40.095,40.095 c 5.021,5.021 12.2,7.479 19.248,6.84 6.562,-0.595 11.719,-3.795 16.276,-8.351 9.379,-9.379 9.379,-24.635 0.001,-34.014 z"
         style="fill:#50a9a9"
         inkscape:connector-curvature="0" />
      <path
         id="path3528"
         d="m 451.639,221.01 c -2.051,0 -4.103,-0.782 -5.669,-2.347 -3.131,-3.132 -3.131,-8.207 0,-11.338 l 12.323,-12.322 -37.701,-35.802 c -3.211,-3.05 -3.342,-8.124 -0.293,-11.333 3.051,-3.211 8.125,-3.342 11.333,-0.293 l 43.668,41.467 c 1.568,1.489 2.469,3.548 2.496,5.71 0.028,2.161 -0.819,4.243 -2.346,5.772 l -18.14,18.14 c -1.568,1.562 -3.62,2.346 -5.671,2.346 z"
         style="fill:#666666"
         inkscape:connector-curvature="0" />
      <g
         id="g3530">
        <path
           id="path3532"
           d="m 198.28,383.733 -53.445,0 c -4.428,0 -8.017,-3.588 -8.017,-8.017 0,-4.428 3.588,-8.017 8.017,-8.017 l 53.445,0 c 4.428,0 8.017,3.588 8.017,8.017 -0.001,4.429 -3.589,8.017 -8.017,8.017 z"
           style="fill:#808080"
           inkscape:connector-curvature="0" />
        <path
           id="path3534"
           d="m 198.28,426.489 -53.445,0 c -4.428,0 -8.017,-3.588 -8.017,-8.017 0,-4.429 3.588,-8.017 8.017,-8.017 l 53.445,0 c 4.428,0 8.017,3.588 8.017,8.017 0,4.429 -3.589,8.017 -8.017,8.017 z"
           style="fill:#808080"
           inkscape:connector-curvature="0" />
      </g>
      <g
         id="g3536" />
      <g
         id="g3538" />
      <g
         id="g3540" />
      <g
         id="g3542" />
      <g
         id="g3544" />
      <g
         id="g3546" />
      <g
         id="g3548" />
      <g
         id="g3550" />
      <g
         id="g3552" />
      <g
         id="g3554" />
      <g
         id="g3556" />
      <g
         id="g3558" />
      <g
         id="g3560" />
      <g
         id="g3562" />
      <g
         id="g3564" />
    </g>
    <g
       id="g3674"
       transform="matrix(4.0357668,0,0,4.0357668,239.44196,780.35215)">
      <path
         id="path3676"
         d="M 63.033,39.744 C 58.759,56.887 41.396,67.32 24.251,63.045 7.113,58.771 -3.32,41.407 0.956,24.265 5.228,7.12 22.591,-3.314 39.731,0.96 56.875,5.234 67.307,22.6 63.033,39.744 Z"
         inkscape:connector-curvature="0"
         style="fill:#f7931a" />
      <path
         id="path3678"
         d="M 46.103,27.444 C 46.74,23.186 43.498,20.897 39.065,19.37 l 1.438,-5.768 -3.511,-0.875 -1.4,5.616 c -0.923,-0.23 -1.871,-0.447 -2.813,-0.662 l 1.41,-5.653 -3.509,-0.875 -1.439,5.766 c -0.764,-0.174 -1.514,-0.346 -2.242,-0.527 l 0.004,-0.018 -4.842,-1.209 -0.934,3.75 c 0,0 2.605,0.597 2.55,0.634 1.422,0.355 1.679,1.296 1.636,2.042 l -1.638,6.571 c 0.098,0.025 0.225,0.061 0.365,0.117 -0.117,-0.029 -0.242,-0.061 -0.371,-0.092 l -2.296,9.205 c -0.174,0.432 -0.615,1.08 -1.609,0.834 0.035,0.051 -2.552,-0.637 -2.552,-0.637 l -1.743,4.019 4.569,1.139 c 0.85,0.213 1.683,0.436 2.503,0.646 l -1.453,5.834 3.507,0.875 1.439,-5.772 c 0.958,0.26 1.888,0.5 2.798,0.726 l -1.434,5.745 3.511,0.875 1.453,-5.823 c 5.987,1.133 10.489,0.676 12.384,-4.739 1.527,-4.36 -0.076,-6.875 -3.226,-8.515 2.294,-0.529 4.022,-2.038 4.483,-5.155 z m -8.022,11.249 c -1.085,4.36 -8.426,2.003 -10.806,1.412 l 1.928,-7.729 c 2.38,0.594 10.012,1.77 8.878,6.317 z m 1.086,-11.312 c -0.99,3.966 -7.1,1.951 -9.082,1.457 l 1.748,-7.01 c 1.982,0.494 8.365,1.416 7.334,5.553 z"
         inkscape:connector-curvature="0"
         style="fill:#ffffff" />
    </g>
  </g>
</svg>
